<svg width="795" height="443" viewBox="0 0 795 443" fill="none" xmlns="http://www.w3.org/2000/svg">
<mask id="mask0_39_94" style="mask-type:alpha" maskUnits="userSpaceOnUse" x="0" y="0" width="795" height="443">
<rect width="795" height="443" rx="14" fill="#3DA2FF"/>
</mask>
<g mask="url(#mask0_39_94)">
<circle cx="161" cy="344" r="229" fill="#D9EBFD"/>
<circle cx="586" cy="29" r="120" fill="#D7EBFF"/>
<circle cx="743.926" cy="212.778" r="2.22222" transform="rotate(-180 743.926 212.778)" fill="#88C6FF"/>
<circle cx="732.074" cy="212.778" r="2.22222" transform="rotate(-180 732.074 212.778)" fill="#88C6FF"/>
<circle cx="720.222" cy="212.778" r="2.22222" transform="rotate(-180 720.222 212.778)" fill="#88C6FF"/>
<circle cx="743.926" cy="200.926" r="2.22222" transform="rotate(-180 743.926 200.926)" fill="#88C6FF"/>
<circle cx="732.074" cy="200.926" r="2.22222" transform="rotate(-180 732.074 200.926)" fill="#88C6FF"/>
<circle cx="720.222" cy="200.926" r="2.22222" transform="rotate(-180 720.222 200.926)" fill="#88C6FF"/>
<circle cx="743.926" cy="189.074" r="2.22222" transform="rotate(-180 743.926 189.074)" fill="#88C6FF"/>
<circle cx="732.074" cy="189.074" r="2.22222" transform="rotate(-180 732.074 189.074)" fill="#88C6FF"/>
<circle cx="720.222" cy="189.074" r="2.22222" transform="rotate(-180 720.222 189.074)" fill="#88C6FF"/>
<circle cx="743.926" cy="177.222" r="2.22222" transform="rotate(-180 743.926 177.222)" fill="#88C6FF"/>
<circle cx="743.926" cy="166.222" r="2.22222" transform="rotate(-180 743.926 166.222)" fill="#88C6FF"/>
<circle cx="743.926" cy="155.222" r="2.22222" transform="rotate(-180 743.926 155.222)" fill="#88C6FF"/>
<circle cx="732.074" cy="177.222" r="2.22222" transform="rotate(-180 732.074 177.222)" fill="#88C6FF"/>
<circle cx="732.074" cy="166.222" r="2.22222" transform="rotate(-180 732.074 166.222)" fill="#88C6FF"/>
<circle cx="732.074" cy="155.222" r="2.22222" transform="rotate(-180 732.074 155.222)" fill="#88C6FF"/>
<circle cx="720.222" cy="177.222" r="2.22222" transform="rotate(-180 720.222 177.222)" fill="#88C6FF"/>
<circle cx="720.222" cy="166.222" r="2.22222" transform="rotate(-180 720.222 166.222)" fill="#88C6FF"/>
<circle cx="720.222" cy="155.222" r="2.22222" transform="rotate(-180 720.222 155.222)" fill="#88C6FF"/>
</g>
</svg>
