<svg width="795" height="443" viewBox="0 0 795 443" fill="none" xmlns="http://www.w3.org/2000/svg">
<mask id="mask0_39_71" style="mask-type:alpha" maskUnits="userSpaceOnUse" x="0" y="0" width="795" height="443">
<rect width="795" height="443" rx="14" fill="#FF754C"/>
</mask>
<g mask="url(#mask0_39_71)">
<circle cx="780" cy="-35" r="165" fill="#FFE7D5"/>
<circle cx="45" cy="439" r="108" fill="#F5DCC8"/>
<circle cx="733.778" cy="93.2222" r="2.22222" transform="rotate(90 733.778 93.2222)" fill="#FF9F59"/>
<circle cx="733.778" cy="105.074" r="2.22222" transform="rotate(90 733.778 105.074)" fill="#FF9F59"/>
<circle cx="733.778" cy="116.926" r="2.22222" transform="rotate(90 733.778 116.926)" fill="#FF9F59"/>
<circle cx="721.926" cy="93.2222" r="2.22222" transform="rotate(90 721.926 93.2222)" fill="#FF9F59"/>
<circle cx="721.926" cy="105.074" r="2.22222" transform="rotate(90 721.926 105.074)" fill="#FF9F59"/>
<circle cx="721.926" cy="116.926" r="2.22222" transform="rotate(90 721.926 116.926)" fill="#FF9F59"/>
<circle cx="710.074" cy="93.2222" r="2.22222" transform="rotate(90 710.074 93.2222)" fill="#FF9F59"/>
<circle cx="710.074" cy="105.074" r="2.22222" transform="rotate(90 710.074 105.074)" fill="#FF9F59"/>
<circle cx="710.074" cy="116.926" r="2.22222" transform="rotate(90 710.074 116.926)" fill="#FF9F59"/>
<circle cx="698.222" cy="93.2222" r="2.22222" transform="rotate(90 698.222 93.2222)" fill="#FF9F59"/>
<circle cx="687.222" cy="93.2222" r="2.22222" transform="rotate(90 687.222 93.2222)" fill="#FF9F59"/>
<circle cx="676.222" cy="93.2222" r="2.22222" transform="rotate(90 676.222 93.2222)" fill="#FF9F59"/>
<circle cx="698.222" cy="105.074" r="2.22222" transform="rotate(90 698.222 105.074)" fill="#FF9F59"/>
<circle cx="687.222" cy="105.074" r="2.22222" transform="rotate(90 687.222 105.074)" fill="#FF9F59"/>
<circle cx="676.222" cy="105.074" r="2.22222" transform="rotate(90 676.222 105.074)" fill="#FF9F59"/>
<circle cx="698.222" cy="116.926" r="2.22222" transform="rotate(90 698.222 116.926)" fill="#FF9F59"/>
<circle cx="687.222" cy="116.926" r="2.22222" transform="rotate(90 687.222 116.926)" fill="#FF9F59"/>
<circle cx="676.222" cy="116.926" r="2.22222" transform="rotate(90 676.222 116.926)" fill="#FF9F59"/>
</g>
</svg>
